PathFileType	4	(X/Y/Z)	./resultDataOpenSim/trcMotMarkerGrf/sub10/qtm-12-05.trc
DataRate	CameraRate	NumFrames	NumMarkers	Units	OrigDataRate	OrigDataStartFrame	OrigNumFrames
250.000000	250.000000	14	24	m	250.000000	317	507
Frame#	Time	L.Toe.Tip			R.Toe.Tip			L.Ankle.Lat			R.Ankle.Lat			L.Ankle.Med			R.Ankle.Med			L.Heel			R.Heel			L.Knee.Lat			R.Knee.Lat			L.Knee.Med			R.Knee.Med			L.Thigh.Upper			R.Thigh.Upper			L.ASIS			R.ASIS			V.Sacral			L.Acromium			R.Acromium			C7			L.Elbow			R.Elbow			L.Wrist.Lat			R.Wrist.Lat
		X1	Y1	Z1	X2	Y2	Z2	X3	Y3	Z3	X4	Y4	Z4	X5	Y5	Z5	X6	Y6	Z6	X7	Y7	Z7	X8	Y8	Z8	X9	Y9	Z9	X10	Y10	Z10	X11	Y11	Z11	X12	Y12	Z12	X13	Y13	Z13	X14	Y14	Z14	X15	Y15	Z15	X16	Y16	Z16	X17	Y17	Z17	X18	Y18	Z18	X19	Y19	Z19	X20	Y20	Z20	X21	Y21	Z21	X22	Y22	Z22	X23	Y23	Z23	X24	Y24	Z24

317	1.264	-0.0090489928	0.017042833	-0.16960686	0.76120316	0.048997252	0.0010846804	-0.080006449	0.13005857	-0.20563713	0.62632734	0.05515451	0.045155597	-0.047575838	0.13745278	-0.12674081	0.63709047	0.080959484	-0.039984442	-0.13927708	0.15137353	-0.15677713	0.57532527	0.02597089	0.0030773139	0.17231889	0.4256078	-0.23481043	0.55043877	0.44902214	0.058585393	0.18333366	0.39095662	-0.11606621	0.5609277	0.45261019	-0.068635648	0.28802484	0.7983463	-0.26533691	0.40376879	0.82827691	0.10564822	0.3796112	0.89694245	-0.22487463	0.4465166	0.9220981	0.012048357	0.22348879	0.918023	-0.044553364	0.33972606	1.3818976	-0.23953591	0.30598707	1.3762648	0.08084178	0.24499422	1.4012988	-0.090671742	0.30292446	1.040991	-0.34402201	0.14039296	1.079108	0.10575249	0.54344689	0.96451997	-0.39605134	0.10938951	0.8938446	0.26266662
318	1.268	-0.0074047503	0.016573966	-0.16993185	0.76277809	0.047137687	0.00064196759	-0.074885605	0.13169122	-0.2066784	0.62790183	0.055087952	0.045307613	-0.04186617	0.13839341	-0.12806944	0.63840419	0.080510756	-0.040175011	-0.13315452	0.15450147	-0.15748518	0.57619907	0.026594825	0.0035801758	0.17925701	0.42607785	-0.23522013	0.55619614	0.44982718	0.058564684	0.18994751	0.39070495	-0.11621757	0.56298047	0.45202193	-0.068388074	0.29631715	0.7978884	-0.26455491	0.4105525	0.82910961	0.10704495	0.38793043	0.89659035	-0.22368409	0.45345824	0.92294958	0.013572796	0.23133085	0.91896011	-0.044317517	0.34619588	1.382508	-0.23822332	0.31222492	1.3764084	0.082139161	0.25126741	1.4013766	-0.089372459	0.30992913	1.0414157	-0.34351763	0.14739134	1.079066	0.10596416	0.54816995	0.96404542	-0.39471229	0.11571174	0.89321448	0.26217149
319	1.272	-0.0057472653	0.01603832	-0.17030664	0.76423652	0.045972661	0.0002932096	-0.069550824	0.13320926	-0.20783821	0.62922618	0.055046978	0.045404413	-0.035994659	0.13923211	-0.12946564	0.63945116	0.080112298	-0.040377307	-0.12688342	0.15754284	-0.158307	0.5769458	0.027101165	0.0039940227	0.18628791	0.42654865	-0.2356822	0.56231098	0.45105305	0.058528656	0.19657822	0.39044547	-0.11636231	0.56534338	0.45169118	-0.068275664	0.30466746	0.79735393	-0.26380637	0.41740218	0.83014976	0.10848835	0.39621785	0.89624132	-0.22242894	0.46038193	0.92378468	0.015124709	0.23784753	0.91978283	-0.045343705	0.35267983	1.3831161	-0.23690582	0.31844665	1.3765407	0.083415811	0.2575158	1.4015094	-0.087941674	0.31759954	1.0419022	-0.34273099	0.15445649	1.0789736	0.10610667	0.5528595	0.96350092	-0.39338331	0.12225601	0.89255936	0.26173967
320	1.276	-0.0041010869	0.015511286	-0.17074553	0.76573225	0.04525531	0.0001114619	-0.064014979	0.13465619	-0.2091421	0.63031202	0.055026517	0.045395877	-0.030002418	0.13999778	-0.13092471	0.64033654	0.079778458	-0.040570761	-0.12048891	0.16053361	-0.1592584	0.57757971	0.027518083	0.0042620361	0.19332702	0.42701312	-0.23617304	0.56868247	0.45254222	0.05846579	0.20315681	0.39019603	-0.11651638	0.56791924	0.45159453	-0.068245427	0.31305561	0.79673912	-0.26310016	0.424294	0.83137275	0.10988469	0.4044534	0.8958929	-0.2211071	0.46725553	0.92459352	0.016672105	0.24344091	0.92044442	-0.047195698	0.35916822	1.3837182	-0.23558354	0.32464746	1.3766599	0.084664756	0.26375438	1.4017315	-0.086436929	0.32523542	1.0424365	-0.34152074	0.16171311	1.0787659	0.10611697	0.55751022	0.96288395	-0.39207909	0.1290161	0.89188283	0.26137345
321	1.28	-0.0024798598	0.015098759	-0.17125798	0.76720918	0.044573742	9.9607455e-05	-0.058287991	0.13608784	-0.21059438	0.63116899	0.055010705	0.04530892	-0.023941366	0.14074619	-0.13243624	0.6411536	0.079519508	-0.040708667	-0.1139963	0.16353634	-0.16035523	0.57810734	0.027868185	0.0044034526	0.20038197	0.42745499	-0.23666565	0.57520471	0.4541242	0.058386331	0.20963189	0.38996394	-0.11667062	0.57059349	0.45170328	-0.068246776	0.32146357	0.79604605	-0.26246123	0.43120217	0.83275894	0.11116207	0.41262131	0.895547	-0.21971902	0.47406603	0.92538246	0.018177681	0.24917139	0.92101683	-0.048851782	0.36564775	1.3843141	-0.23426858	0.33083051	1.3767686	0.085883589	0.27000445	1.4020365	-0.08498608	0.33200231	1.0429902	-0.33991297	0.16913376	1.0784432	0.10607058	0.56211295	0.96220215	-0.39080749	0.13601642	0.89118871	0.26108002
322	1.284	-0.00087143912	0.014911472	-0.17184574	0.76852494	0.043693858	0.00022152333	-0.052385671	0.1375555	-0.2121584	0.63184146	0.054983187	0.04522142	-0.01786831	0.14154906	-0.1339865	0.64193767	0.079324913	-0.040758064	-0.10742386	0.16664036	-0.16161972	0.57854176	0.028163708	0.0044861221	0.20759292	0.42784392	-0.23716509	0.58179071	0.45565929	0.058310993	0.21602925	0.38975313	-0.11680975	0.5733232	0.45200613	-0.068277474	0.32987938	0.79528437	-0.26192206	0.43811677	0.83428765	0.1122992	0.42070944	0.89520934	-0.21827152	0.48081229	0.92616687	0.019603355	0.25563866	0.92160607	-0.04975186	0.37211167	1.3849056	-0.23297431	0.33699032	1.3768751	0.08707455	0.2762542	1.402369	-0.083665	0.33772678	1.0435543	-0.33809825	0.17655694	1.0780264	0.10604474	0.56665838	0.96145894	-0.38956418	0.14326414	0.89047409	0.26086068
323	1.288	0.00076885183	0.015037902	-0.17249303	0.76963052	0.042701597	0.00042195775	-0.046348292	0.13910233	-0.21376525	0.63240211	0.054945696	0.045214007	-0.011836242	0.14247339	-0.13555623	0.6426771	0.07917434	-0.040715608	-0.10074828	0.16995029	-0.16310018	0.57890709	0.028414316	0.0045639406	0.21506707	0.4281525	-0.23767725	0.58837711	0.4570647	0.058264725	0.2225985	0.38955022	-0.1169353	0.57614115	0.45250618	-0.068329521	0.33828805	0.79447092	-0.26149768	0.44502897	0.83593047	0.11330719	0.42870578	0.89488713	-0.21678409	0.48749307	0.92695675	0.020913477	0.26266807	0.92224497	-0.050089067	0.37856281	1.3854959	-0.23170677	0.34312058	1.3769833	0.088237999	0.28247773	1.4026632	-0.082459762	0.34280126	1.044139	-0.3362844	0.18386575	1.0775121	0.10608816	0.57114127	0.96064337	-0.3883403	0.15068387	0.88972068	0.2606971
324	1.292	0.0025102045	0.015526807	-0.17315915	0.77059128	0.04180621	0.0006493906	-0.040233832	0.14077599	-0.21536549	0.63291394	0.05490845	0.045322376	-0.0058598015	0.14357444	-0.13711353	0.64335349	0.079054155	-0.04059556	-0.093898247	0.17355879	-0.16485602	0.57922498	0.028628343	0.0046544657	0.22274189	0.4283703	-0.23814577	0.59488098	0.45827848	0.058248133	0.22991379	0.3892938	-0.11709748	0.57915059	0.45319411	-0.068340508	0.34665747	0.79362655	-0.26116126	0.45191187	0.83765145	0.11420286	0.43658492	0.89458486	-0.21529683	0.49410663	0.92775503	0.022085461	0.26984555	0.92287771	-0.050287222	0.38500589	1.3860895	-0.2304699	0.34923103	1.3770925	0.089370426	0.28867113	1.4028902	-0.081346147	0.3475958	1.044758	-0.33457542	0.19107391	1.0769131	0.10623312	0.57556102	0.95974356	-0.38713459	0.15816623	0.88890821	0.26056423
325	1.296	0.0044092148	0.016371152	-0.17380414	0.7714609	0.04110328	0.00088224249	-0.034069901	0.14263304	-0.21695528	0.63339941	0.054861004	0.045504836	0.00010350637	0.14490067	-0.13861714	0.64395633	0.078956696	-0.04041877	-0.086802011	0.17749672	-0.16686843	0.57950355	0.028806295	0.0047564346	0.23052819	0.4284972	-0.23849662	0.60118336	0.45923301	0.058238338	0.23855017	0.38886438	-0.11741327	0.5824645	0.45402696	-0.068220484	0.35494553	0.79277393	-0.26086111	0.45872571	0.83941048	0.11500455	0.44430985	0.89430269	-0.21385959	0.50064951	0.92856396	0.023121344	0.27696374	0.92342819	-0.050556599	0.39144327	1.386695	-0.22927036	0.35533237	1.3772073	0.090470387	0.29483597	1.4030606	-0.080322799	0.35226649	1.0454175	-0.33296727	0.19825788	1.0762731	0.10645889	0.57991917	0.95875971	-0.38595044	0.16567189	0.88803634	0.26045388
326	1.3	0.0064750583	0.017507707	-0.17442297	0.77220639	0.040566417	0.0011168634	-0.027826204	0.14472314	-0.21853159	0.63381943	0.054783428	0.045684026	0.0061169266	0.14648916	-0.14003622	0.64447293	0.078879036	-0.040212325	-0.079438439	0.18168684	-0.16896553	0.57973986	0.028943031	0.0048656178	0.23850773	0.42852944	-0.23873719	0.60717857	0.4598823	0.05823914	0.24838137	0.38816225	-0.11800606	0.58610348	0.4549353	-0.067925977	0.36312331	0.79194011	-0.26057341	0.46543085	0.84116674	0.11572972	0.45185748	0.89404564	-0.21250513	0.50711258	0.92938548	0.024042739	0.28400633	0.92384302	-0.050902671	0.3978726	1.3873218	-0.22811667	0.36141326	1.3773359	0.091540577	0.3009423	1.4032082	-0.079348613	0.35686973	1.0461082	-0.33141089	0.20548266	1.0756261	0.10671753	0.58421838	0.95769531	-0.38478251	0.17324017	0.88711983	0.26037505
327	1.304	0.0086851913	0.018851079	-0.17503731	0.77277083	0.040159142	0.0013422245	-0.021442217	0.14706684	-0.22005517	0.63410872	0.054673685	0.045819251	0.012230229	0.14835117	-0.14136206	0.64488871	0.078825478	-0.040005757	-0.071826117	0.1859843	-0.17093081	0.57993091	0.029037498	0.0049716945	0.24682593	0.42845853	-0.23892535	0.61282245	0.46023542	0.058308934	0.25852104	0.38724907	-0.11886112	0.58997704	0.4558467	-0.067479466	0.37118084	0.79116078	-0.26031458	0.4720011	0.84288391	0.11639093	0.45923001	0.89383163	-0.21123914	0.51348616	0.93021544	0.02487547	0.29092061	0.92411119	-0.051322495	0.4042855	1.3879756	-0.22701855	0.36745297	1.3774822	0.09258192	0.30694775	1.4033817	-0.078349696	0.36142767	1.0468093	-0.32986939	0.212786	1.0750041	0.1069884	0.58846049	0.95655024	-0.38361722	0.18092687	0.88616928	0.26033791
328	1.308	0.011025947	0.020332693	-0.17566175	0.77315613	0.039865711	0.0015414414	-0.014864612	0.14964215	-0.22147795	0.63425606	0.05454186	0.045913047	0.018485577	0.15045824	-0.14259945	0.64520621	0.078800268	-0.039818098	-0.063979732	0.19028292	-0.17268278	0.58008356	0.029096581	0.0050522713	0.25546546	0.42829107	-0.23906932	0.61812787	0.46036015	0.058537157	0.26818353	0.38635654	-0.11975919	0.59396497	0.45670339	-0.06692699	0.37911546	0.79047658	-0.26010638	0.47844153	0.8445386	0.11700819	0.46643832	0.89368313	-0.21005593	0.51976625	0.93104133	0.025639129	0.297507	0.92430505	-0.051824306	0.41067471	1.3886629	-0.22598388	0.37345025	1.3776504	0.093591523	0.31285256	1.4036298	-0.077316157	0.36593432	1.0475019	-0.32833381	0.22017323	1.0744412	0.10728144	0.59264104	0.95532834	-0.3824482	0.18876093	0.88518624	0.26034306
329	1.312	0.013510045	0.021911693	-0.17629254	0.77341953	0.039662322	0.0017070734	-0.0080690852	0.15239603	-0.22278898	0.63431391	0.054398726	0.045982493	0.024928437	0.15273719	-0.14375358	0.64545405	0.078800633	-0.039649369	-0.055901812	0.19454757	-0.17426022	0.58021108	0.029129511	0.005087939	0.264289	0.42807186	-0.23913076	0.62309023	0.46034018	0.0589885	0.27723482	0.38569125	-0.12041645	0.5979933	0.45746289	-0.06631774	0.38692696	0.78992466	-0.25995933	0.48479243	0.84612652	0.11762061	0.47348036	0.89361539	-0.20895838	0.52595414	0.93185117	0.026341499	0.30356278	0.92458198	-0.052305301	0.41703872	1.3893891	-0.22501442	0.37942352	1.37785	0.094569106	0.31870276	1.4039824	-0.07631194	0.37040021	1.0481803	-0.326805	0.2276117	1.0739368	0.10761603	0.59675025	0.9540394	-0.38128097	0.1967395	0.88416971	0.26037924
330	1.316	0.016171223	0.02356485	-0.17692717	0.77361767	0.03951573	0.0018495095	-0.001067809	0.15527046	-0.22401865	0.63433873	0.054255191	0.046049538	0.031600148	0.15508752	-0.14482671	0.64566739	0.078819507	-0.039485134	-0.047602471	0.19875494	-0.1756762	0.58031596	0.029144403	0.0050908179	0.27319897	0.42788462	-0.23907508	0.62761197	0.46022161	0.059635926	0.28595252	0.38528356	-0.12069436	0.60205978	0.45809581	-0.065701517	0.39461916	0.78953273	-0.25987322	0.49108837	0.84766167	0.11826123	0.4803441	0.89363795	-0.2079576	0.53205131	0.93264635	0.02698415	0.30913019	0.92506518	-0.052627278	0.42337838	1.3901555	-0.22410529	0.38538681	1.3780922	0.09551669	0.32454461	1.4044416	-0.075392397	0.37495463	1.0488656	-0.32526089	0.23505514	1.0734527	0.10799579	0.60078252	0.95269269	-0.38012056	0.20485331	0.88312502	0.26043239
